HIERARCHY
ROOT Hips
{
	OFFSET 0 13 -8
	CHANNELS 6 Xposition Yposition Zposition Zrotation Xrotation Yrotation
	JOINT RightUpLeg
	{
		OFFSET -8.9458 -8.66707 0.101652
		CHANNELS 3 Zrotation Xrotation Yrotation
		JOINT RightLeg
		{
			OFFSET -3.90799e-014 -44.4227 1.3727
			CHANNELS 3 Zrotation Xrotation Yrotation
			JOINT RightFoot
			{
				OFFSET 0.253549 -42.0924 -1.46059
				CHANNELS 3 Zrotation Xrotation Yrotation
				JOINT RightToes
				{
					OFFSET 0.04 -4.41509 8.4991
					CHANNELS 3 Zrotation Xrotation Yrotation
					End Site
					{
						OFFSET -0.08 -0.137448 9.77979
					}
				}
			}
		}
	}
	JOINT Spine
	{
		OFFSET -1.77636e-014 11.8905 1.77636e-015
		CHANNELS 3 Zrotation Xrotation Yrotation
		JOINT Spine1
		{
			OFFSET 0 25.6574 0.127663
			CHANNELS 3 Zrotation Xrotation Yrotation
			JOINT head
			{
				OFFSET -1.42109e-014 8.73416 0.011341
				CHANNELS 3 Zrotation Xrotation Yrotation
				End Site
				{
					OFFSET -0.29 12.7742 2.51395
				}
			}
			JOINT LeftShoulder1
			{
				OFFSET 8.99 -0.362252 -0.22
				CHANNELS 3 Zrotation Xrotation Yrotation
				JOINT LeftArm
				{
					OFFSET 10.2827 -0.00338 0.322123
					CHANNELS 3 Zrotation Xrotation Yrotation
					JOINT LeftForeArm
					{
						OFFSET 32.7669 0.099144 -1.42434
						CHANNELS 3 Zrotation Xrotation Yrotation
						JOINT LeftHand
						{
							OFFSET 27.5643 0.085362 1.02216
							CHANNELS 3 Zrotation Xrotation Yrotation
							End Site
							{
								OFFSET 16.7443 -0.6 1.50291
							}
						}
					}
				}
			}
			JOINT RightShoulder
			{
				OFFSET -8.99 -0.362252 -0.22
				CHANNELS 3 Zrotation Xrotation Yrotation
				JOINT RightArm
				{
					OFFSET -10.2827 -0.00338 0.322123
					CHANNELS 3 Zrotation Xrotation Yrotation
					JOINT RightForeArm
					{
						OFFSET -32.8971 0.099144 -1.42434
						CHANNELS 3 Zrotation Xrotation Yrotation
						JOINT RightHand
						{
							OFFSET -27.4921 0.085362 1.02216
							CHANNELS 3 Zrotation Xrotation Yrotation
							End Site
							{
								OFFSET -16.6312 -0.6 1.50291
							}
						}
					}
				}
			}
		}
	}
	JOINT LeftUpLeg
	{
		OFFSET 8.9458 -8.66707 0.101652
		CHANNELS 3 Zrotation Xrotation Yrotation
		JOINT LeftLeg
		{
			OFFSET 7.10543e-014 -44.4227 1.3727
			CHANNELS 3 Zrotation Xrotation Yrotation
			JOINT LeftFoot
			{
				OFFSET -0.253549 -42.0924 -1.46059
				CHANNELS 3 Zrotation Xrotation Yrotation
				JOINT LeftToes
				{
					OFFSET -0.04 -4.41509 8.4991
					CHANNELS 3 Zrotation Xrotation Yrotation
					End Site
					{
						OFFSET 0.08 -0.047448 9.77979
					}
				}
			}
		}
	}
}
MOTION
Frames: 7
Frame Time: 0.0333333
11.1023 102.692 -48.0262 0.50267 -0.845618 -4.02911 -1.03261 -3.05083 -5.86397 -2.82013 10.886 -15.3614 -0.308018 -2.39747 -0.12296 -2.15832 -4.58291 0.667579 -0.275071 4.9926 0.771068 -1.35528 9.97326 1.645 1.43781 -22.4067 -7.67604 -5.03302e-021 -3.88251e-019 1.21329e-020 -77.9527 -19.0563 -5.15742 -19.7003 39.5928 -79.9894 -1.8548 8.93451 45.634 20.3417 1.08047 2.39368 58.8307 13.4515 13.348 3.13775 -18.2797 25.6045 19.035 4.89498 -32.6909 5.46925 -5.14722 3.63381 3.34901 3.58731 0.54752 -11.7467 1.85755 0.951452 -0.704927 0.847135 0.0227988 
12.1858 102.778 -47.2708 1.01741 -0.399552 -2.78295 -2.45347 -2.93744 -5.01053 -2.2349 11.164 -16.9818 0.563366 -3.90896 -0.16559 -1.18951 -2.59928 0.129922 -0.653407 4.61698 0.376882 -1.68917 9.20915 0.857369 1.67278 -21.423 -8.54098 -5.03302e-021 -3.88251e-019 1.21329e-020 -78.4881 -18.9026 -5.44269 -24.3802 38.4184 -75.66 3.18236 10.7329 42.554 21.1414 1.11454 2.40794 58.6079 10.5666 12.8824 4.29737 -17.3364 27.3191 19.7359 4.61494 -33.199 4.82196 -5.42921 3.25392 2.29964 3.75566 0.421729 -12.002 0.919934 0.880572 -0.803249 1.06211 -0.491416 
13.3567 102.647 -46.704 1.66549 -0.447594 -1.36974 -4.17545 -3.10764 -4.24697 -1.66812 12.8733 -18.8699 1.78608 -4.96509 -0.196246 -1.07905 -2.3873 -0.137491 -0.812516 4.51942 0.0196835 -2.29929 9.04366 0.166394 1.81448 -20.6779 -9.82886 -5.03302e-021 -3.88251e-019 1.21329e-020 -78.4919 -19.1674 -6.0387 -27.4978 37.8363 -72.7917 5.32949 11.409 41.2983 21.6068 1.13096 2.40127 59.2987 7.7152 12.3382 5.96604 -19.2154 29.4364 17.1617 5.39725 -32.5899 3.22966 -6.40597 3.95875 2.61278 5.3422 -0.71359 -11.6009 2.96343 1.0441 2.08123 -2.20008 -2.38846 
14.6804 102.379 -46.2643 2.04539 -1.05123 -1.1251 -5.61157 -3.43064 -3.59843 -1.50741 15.4894 -19.3283 3.56797 -5.80899 -0.217576 -1.23273 -2.71884 -0.503827 -1.02464 4.72464 0.0310615 -2.78001 9.46414 0.215297 1.94935 -20.19 -10.9613 -5.03302e-021 -3.88251e-019 1.21329e-020 -77.9897 -19.5574 -6.63237 -27.7212 38.7304 -73.0218 5.55769 11.5346 42.3974 21.4831 1.11963 2.37342 60.7221 4.994 11.9897 7.07164 -21.1937 31.9207 14.9424 6.12646 -31.4878 1.80547 -7.00658 4.40313 2.94111 7.82704 -1.12482 -9.95588 4.13554 0.984777 4.12367 -4.68797 -3.09964 
16.0415 102.134 -45.8403 2.17968 -1.79141 -2.39887 -6.27812 -4.39344 -4.1009 -3.06147 18.677 -16.8548 5.69188 -6.29321 -0.231148 -1.09622 -2.47499 -1.11357 -1.47999 5.05989 0.378684 -3.03351 10.0938 0.917616 2.10668 -20.0583 -11.408 -5.03302e-021 -3.88251e-019 1.21329e-020 -77.3006 -19.3729 -7.37664 -24.6816 39.5292 -75.9781 4.61194 11.2945 44.5438 20.9462 1.08768 2.32415 61.8535 3.4004 12.5031 7.50221 -21.8495 33.5285 14.3835 6.55874 -29.3632 1.14137 -7.02304 4.28553 2.37441 10.187 0.52488 -8.41277 4.03417 0.818539 5.23935 -6.07967 -3.28238 
17.2817 102.014 -45.3324 2.12449 -2.23803 -4.13603 -6.35185 -6.28789 -5.05631 -5.75983 22.3678 -13.2753 7.79428 -5.58324 -0.300392 -0.892156 -2.11362 -1.87713 -1.79338 5.26096 0.644467 -3.12266 10.4648 1.43863 2.2556 -19.0549 -10.8849 -5.03302e-021 -3.88251e-019 1.21329e-020 -76.2597 -19.4988 -8.22016 -21.0767 39.5929 -78.1802 2.99261 10.7437 45.986 20.4056 1.05537 2.27153 61.9391 4.18508 13.7299 7.42284 -21.5171 34.0837 14.6049 6.79145 -27.344 0.824289 -6.79205 4.18774 1.67629 11.7278 2.68187 -7.58433 3.29898 0.689863 5.80284 -6.77583 -3.54745 
18.2898 102.112 -44.7707 1.91987 -2.53889 -5.44551 -6.50361 -8.56048 -5.08015 -7.17659 26.5382 -11.1323 8.57915 -2.57225 -0.521113 -1.59634 -3.49657 -1.84475 -1.88379 5.30024 0.616379 -3.06898 10.5331 1.37111 2.40566 -15.7901 -9.70719 -5.03302e-021 -3.88251e-019 1.21329e-020 -74.93 -19.56 -8.70589 -19.0915 38.4416 -77.8379 1.65686 10.2482 46.4874 20.2211 1.04108 2.23841 60.8465 6.05997 15.0529 7.78114 -20.3547 34.1169 14.7736 6.92087 -26.1761 0.4989 -6.19708 4.19926 1.58947 12.3296 3.97365 -8.178 1.67494 0.641297 5.19648 -5.97924 -4.03416 
